<svg id="Layer_1" data-name="Layer 1" xmlns="http://www.w3.org/2000/svg" xmlns:xlink="http://www.w3.org/1999/xlink" viewBox="0 0 792 792"><defs><style>.cls-1{fill:url(#linear-gradient);}.cls-2{fill:url(#radial-gradient);}.cls-3{fill:#fff;}.cls-4{fill:#fffdff;}.cls-5{fill:#5d6262;}.cls-6{fill:#f4f4f4;}.cls-7{fill:none;}.cls-7,.cls-8{stroke:#fff;stroke-miterlimit:10;stroke-width:0.5px;}.cls-8{fill:#fffefe;}.cls-9{fill:#b2b1b2;}.cls-10{fill:#5c97cd;}.cls-11{font-size:87.7px;fill:#5a98d1;font-family:Curvert;letter-spacing:0.17em;}</style><linearGradient id="linear-gradient" x1="294.61" y1="627.86" x2="509.63" y2="37.09" gradientUnits="userSpaceOnUse"><stop offset="0" stop-color="#252225"/><stop offset="0.03" stop-color="#3b393c"/><stop offset="0.08" stop-color="#757376"/><stop offset="0.16" stop-color="#d1cfd2"/><stop offset="0.19" stop-color="#f3f1f4"/><stop offset="0.22" stop-color="#cbc9cc"/><stop offset="0.26" stop-color="#918e91"/><stop offset="0.3" stop-color="#626063"/><stop offset="0.34" stop-color="#413e41"/><stop offset="0.37" stop-color="#2c292c"/><stop offset="0.39" stop-color="#252225"/><stop offset="0.43" stop-color="#282528"/><stop offset="0.46" stop-color="#312e31"/><stop offset="0.48" stop-color="#403d40"/><stop offset="0.5" stop-color="#565356"/><stop offset="0.52" stop-color="#726f72"/><stop offset="0.54" stop-color="#959295"/><stop offset="0.55" stop-color="#bebbbe"/><stop offset="0.57" stop-color="#eceaed"/><stop offset="0.57" stop-color="#f3f1f4"/><stop offset="0.6" stop-color="#cdcbce"/><stop offset="0.64" stop-color="#928f92"/><stop offset="0.68" stop-color="#636063"/><stop offset="0.72" stop-color="#413e41"/><stop offset="0.75" stop-color="#2c292c"/><stop offset="0.76" stop-color="#252225"/><stop offset="0.84" stop-color="#8d8a8d"/><stop offset="0.91" stop-color="#f3f1f4"/><stop offset="1" stop-color="#353a38"/></linearGradient><radialGradient id="radial-gradient" cx="402.12" cy="332.48" r="263.2" gradientUnits="userSpaceOnUse"><stop offset="0.05" stop-color="#03723c"/><stop offset="0.34" stop-color="#058842"/><stop offset="0.51" stop-color="#069846"/><stop offset="0.95" stop-color="#036a3c"/></radialGradient></defs><title>BELFORDC</title><ellipse class="cls-1" cx="402.12" cy="332.48" rx="281.01" ry="318.4"/><ellipse class="cls-2" cx="402.12" cy="332.48" rx="246.3" ry="279.08"/><path class="cls-3" d="M402.12,53.4c-136,0-246.3,124.94-246.3,279.08s110.27,279.07,246.3,279.07,246.3-124.94,246.3-279.07S538.15,53.4,402.12,53.4Zm0,550.75c-132.42,0-239.77-121.63-239.77-271.67S269.7,60.8,402.12,60.8,641.89,182.43,641.89,332.48,534.54,604.15,402.12,604.15Z"/><ellipse class="cls-4" cx="350.37" cy="253.92" rx="40.3" ry="44.28"/><path class="cls-4" d="M396.21,384.78s1.23-1.61,3.5-4.34a73.9,73.9,0,0,0,3.34-22c0-25.45-12.58-47.32-30.67-57.34a37.35,37.35,0,0,1-47.6,2.06A57.44,57.44,0,0,0,308,320.89C335.07,333.53,376.89,356.44,396.21,384.78Z"/><path class="cls-4" d="M481.65,217.35c-2.49-24.22-20.3-43.68-43.3-45.39-22.68-1.68-42.91,14.46-49.26,37.53C426.29,224.33,468.05,219.52,481.65,217.35Z"/><path class="cls-4" d="M392.49,212.31a53.62,53.62,0,0,0-1.64,9.34c0,.4,0,.78-.05,1.18a38.12,38.12,0,0,1,10,29.5q-.16,1.88-.48,3.69c7.2,9.79,17.91,16.43,30.33,17.48,24.2,2,45.64-17.87,47.88-44.46a52.36,52.36,0,0,0,0-9.12C434.94,229.39,405.23,218.7,392.49,212.31Z"/><polygon class="cls-3" points="367.85 168.21 449.45 206.03 529.07 168.21 451.94 134.88 367.85 168.21"/><polygon class="cls-5" points="367.85 165.29 449.45 203.11 529.07 165.29 451.94 131.95 367.85 165.29"/><circle class="cls-6" cx="448.46" cy="161.31" r="2.49"/><path class="cls-7" d="M448.46,161.31l44.62,21.07s-1.83,24.33,3.77,31.8"/><path class="cls-8" d="M497.45,214.18s12.69,6-1.86,18.28C495.59,232.46,487.75,218.28,497.45,214.18Z"/><path class="cls-4" d="M411.82,355.55a75.06,75.06,0,0,1-1.09,12.57c17.11-18,47.8-45.23,83.66-54.79a63.68,63.68,0,0,0-31.72-32.16,52.53,52.53,0,0,1-57.48,2.06,63.59,63.59,0,0,0-20.09,17.44C401,311.53,411.82,332,411.82,355.55Z"/><path class="cls-4" d="M525.54,334c-60.87,3.55-126.09,62.53-126.09,62.53,32.51-46.19,104.29-68,118.15-71.91l-5-5.71c-63.69,5-116.43,74.63-116.43,74.63-29.85-43.78-113.45-74.63-113.45-74.63l-10.07,7.42c86.78,19.83,122,70.2,122,70.2C334.45,343.21,277.65,334.46,264,333.1c9.06,12.5,30.68,152,30.68,152C350.43,504,398.2,559.74,398.2,559.74c21.9-48.76,98.52-70.65,98.52-70.65C495.75,462.76,524.4,339,525.54,334Z"/><rect class="cls-9" x="391.86" y="394.88" width="8.27" height="159.02" rx="0.95"/><rect class="cls-10" x="138.59" y="666.49" width="521.71" height="22.39"/><text class="cls-11" transform="translate(105.86 780.87)">BELFODC</text></svg>