<svg id="Layer_1" data-name="Layer 1" xmlns="http://www.w3.org/2000/svg" xmlns:xlink="http://www.w3.org/1999/xlink" viewBox="0 0 199.15 248.72"><defs><style>.cls-1{fill:url(#linear-gradient);}.cls-2{fill:url(#radial-gradient);}.cls-3{fill:#fff;}.cls-4{fill:#fffdff;}.cls-5{fill:#5d6262;}.cls-6{fill:#f4f4f4;}.cls-7{fill:none;}.cls-7,.cls-8{stroke:#fff;stroke-miterlimit:10;stroke-width:0.5px;}.cls-8{fill:#fffefe;}.cls-9{fill:#b2b1b2;}</style><linearGradient id="linear-gradient" x1="64.13" y1="225" x2="134.62" y2="31.35" gradientUnits="userSpaceOnUse"><stop offset="0" stop-color="#252225"/><stop offset="0.03" stop-color="#3b393c"/><stop offset="0.08" stop-color="#757376"/><stop offset="0.16" stop-color="#d1cfd2"/><stop offset="0.19" stop-color="#f3f1f4"/><stop offset="0.22" stop-color="#cbc9cc"/><stop offset="0.26" stop-color="#918e91"/><stop offset="0.3" stop-color="#626063"/><stop offset="0.34" stop-color="#413e41"/><stop offset="0.37" stop-color="#2c292c"/><stop offset="0.39" stop-color="#252225"/><stop offset="0.43" stop-color="#282528"/><stop offset="0.46" stop-color="#312e31"/><stop offset="0.48" stop-color="#403d40"/><stop offset="0.5" stop-color="#565356"/><stop offset="0.52" stop-color="#726f72"/><stop offset="0.54" stop-color="#959295"/><stop offset="0.55" stop-color="#bebbbe"/><stop offset="0.57" stop-color="#eceaed"/><stop offset="0.57" stop-color="#f3f1f4"/><stop offset="0.6" stop-color="#cdcbce"/><stop offset="0.64" stop-color="#928f92"/><stop offset="0.68" stop-color="#636063"/><stop offset="0.72" stop-color="#413e41"/><stop offset="0.75" stop-color="#2c292c"/><stop offset="0.76" stop-color="#252225"/><stop offset="0.84" stop-color="#8d8a8d"/><stop offset="0.91" stop-color="#f3f1f4"/><stop offset="1" stop-color="#353a38"/></linearGradient><radialGradient id="radial-gradient" cx="99.37" cy="128.17" r="86.28" gradientUnits="userSpaceOnUse"><stop offset="0.05" stop-color="#03723c"/><stop offset="0.34" stop-color="#058842"/><stop offset="0.51" stop-color="#069846"/><stop offset="0.95" stop-color="#036a3c"/></radialGradient></defs><title>BELFORDC</title><ellipse class="cls-1" cx="99.37" cy="128.17" rx="92.11" ry="104.37"/><ellipse class="cls-2" cx="99.37" cy="128.17" rx="80.74" ry="91.48"/><path class="cls-3" d="M99.37,36.69c-44.59,0-80.73,41-80.73,91.48s36.14,91.49,80.73,91.49,80.74-41,80.74-91.49S144,36.69,99.37,36.69Zm0,180.54c-43.4,0-78.59-39.87-78.59-89.06s35.19-89,78.59-89S178,79,178,128.17,142.78,217.23,99.37,217.23Z"/><ellipse class="cls-4" cx="82.41" cy="102.42" rx="13.21" ry="14.52"/><path class="cls-4" d="M97.44,145.32s.4-.53,1.15-1.42a24.54,24.54,0,0,0,1.09-7.2c0-8.35-4.12-15.52-10.05-18.8a12.26,12.26,0,0,1-15.61.68,18.79,18.79,0,0,0-5.51,5.8C77.39,128.52,91.1,136,97.44,145.32Z"/><path class="cls-4" d="M125.44,90.44c-.81-7.94-6.65-14.32-14.19-14.88S97.18,80.3,95.1,87.86C107.3,92.72,121,91.15,125.44,90.44Z"/><path class="cls-4" d="M96.22,88.79a16.87,16.87,0,0,0-.54,3.06c0,.13,0,.25,0,.38a12.52,12.52,0,0,1,3.26,9.67,11.75,11.75,0,0,1-.16,1.21,13.8,13.8,0,0,0,10,5.73c7.93.67,15-5.85,15.69-14.57a16.57,16.57,0,0,0,0-3C110.13,94.38,100.4,90.88,96.22,88.79Z"/><polygon class="cls-3" points="88.14 74.33 114.89 86.72 140.99 74.33 115.71 63.4 88.14 74.33"/><polygon class="cls-5" points="88.14 73.37 114.89 85.77 140.99 73.37 115.71 62.44 88.14 73.37"/><circle class="cls-6" cx="114.56" cy="72.07" r="0.82"/><path class="cls-7" d="M114.56,72.07,129.19,79s-.6,8,1.24,10.43"/><path class="cls-8" d="M130.63,89.4s4.15,1.95-.62,6C130,95.39,127.44,90.74,130.63,89.4Z"/><path class="cls-4" d="M102.56,135.74a25.25,25.25,0,0,1-.36,4.12c5.61-5.89,15.67-14.83,27.42-18a20.86,20.86,0,0,0-10.4-10.54,17.24,17.24,0,0,1-18.84.67,21,21,0,0,0-6.59,5.72C99,121.31,102.56,128,102.56,135.74Z"/><path class="cls-4" d="M139.83,128.68c-20,1.16-41.33,20.49-41.33,20.49,10.66-15.14,34.19-22.3,38.73-23.57l-1.63-1.87c-20.87,1.63-38.16,24.47-38.16,24.47-9.79-14.36-37.19-24.47-37.19-24.47L57,126.16c28.44,6.51,40,23,40,23-19.76-17.48-38.38-20.34-42.84-20.79,3,4.1,10,49.83,10,49.83,18.27,6.2,33.93,24.46,33.93,24.46,7.18-16,32.3-23.16,32.3-23.16C130.07,170.88,139.46,130.3,139.83,128.68Z"/><rect class="cls-9" x="96.01" y="148.63" width="2.71" height="52.13" rx="0.95"/></svg>