<svg id="Layer_1" data-name="Layer 1" xmlns="http://www.w3.org/2000/svg" xmlns:xlink="http://www.w3.org/1999/xlink" viewBox="0 0 199.15 248.72"><defs><style>.cls-1{fill:url(#linear-gradient);}.cls-2{fill:url(#radial-gradient);}.cls-3{fill:#fff;}.cls-4{fill:#fffdff;}.cls-5{fill:#5d6262;}.cls-6{fill:#f4f4f4;}.cls-7{fill:none;}.cls-7,.cls-8{stroke:#fff;stroke-miterlimit:10;stroke-width:0.5px;}.cls-8{fill:#fffefe;}.cls-9{fill:#b2b1b2;}.cls-10{fill:#5c97cd;}.cls-11{font-size:26.74px;fill:#5a98d1;font-family:Curvert;letter-spacing:0.17em;}</style><linearGradient id="linear-gradient" x1="67.59" y1="196.25" x2="133.16" y2="16.1" gradientUnits="userSpaceOnUse"><stop offset="0" stop-color="#252225"/><stop offset="0.03" stop-color="#3b393c"/><stop offset="0.08" stop-color="#757376"/><stop offset="0.16" stop-color="#d1cfd2"/><stop offset="0.19" stop-color="#f3f1f4"/><stop offset="0.22" stop-color="#cbc9cc"/><stop offset="0.26" stop-color="#918e91"/><stop offset="0.3" stop-color="#626063"/><stop offset="0.34" stop-color="#413e41"/><stop offset="0.37" stop-color="#2c292c"/><stop offset="0.39" stop-color="#252225"/><stop offset="0.43" stop-color="#282528"/><stop offset="0.46" stop-color="#312e31"/><stop offset="0.48" stop-color="#403d40"/><stop offset="0.5" stop-color="#565356"/><stop offset="0.52" stop-color="#726f72"/><stop offset="0.54" stop-color="#959295"/><stop offset="0.55" stop-color="#bebbbe"/><stop offset="0.57" stop-color="#eceaed"/><stop offset="0.57" stop-color="#f3f1f4"/><stop offset="0.6" stop-color="#cdcbce"/><stop offset="0.64" stop-color="#928f92"/><stop offset="0.68" stop-color="#636063"/><stop offset="0.72" stop-color="#413e41"/><stop offset="0.75" stop-color="#2c292c"/><stop offset="0.76" stop-color="#252225"/><stop offset="0.84" stop-color="#8d8a8d"/><stop offset="0.91" stop-color="#f3f1f4"/><stop offset="1" stop-color="#353a38"/></linearGradient><radialGradient id="radial-gradient" cx="100.37" cy="106.17" r="80.26" gradientUnits="userSpaceOnUse"><stop offset="0.05" stop-color="#03723c"/><stop offset="0.34" stop-color="#058842"/><stop offset="0.51" stop-color="#069846"/><stop offset="0.95" stop-color="#036a3c"/></radialGradient></defs><title>BELFORDC</title><ellipse class="cls-1" cx="100.37" cy="106.17" rx="85.69" ry="97.1"/><ellipse class="cls-2" cx="100.37" cy="106.17" rx="75.11" ry="85.11"/><path class="cls-3" d="M100.37,21.07c-41.48,0-75.11,38.1-75.11,85.1s33.63,85.11,75.11,85.11,75.12-38.1,75.12-85.11S141.86,21.07,100.37,21.07Zm0,168C60,189,27.26,151.93,27.26,106.17S60,23.33,100.37,23.33s73.12,37.09,73.12,82.84S140.76,189,100.37,189Z"/><ellipse class="cls-4" cx="84.59" cy="82.22" rx="12.29" ry="13.5"/><path class="cls-4" d="M98.57,122.13s.38-.5,1.07-1.33a22.53,22.53,0,0,0,1-6.7c0-7.76-3.84-14.43-9.36-17.48a11.4,11.4,0,0,1-14.51.62,17.58,17.58,0,0,0-5.13,5.4C79.93,106.5,92.68,113.48,98.57,122.13Z"/><path class="cls-4" d="M124.63,71.07c-.76-7.39-6.19-13.32-13.21-13.84s-13.08,4.41-15,11.44C107.75,73.2,120.48,71.73,124.63,71.07Z"/><path class="cls-4" d="M97.44,69.53a15.58,15.58,0,0,0-.5,2.85c0,.12,0,.24,0,.36a11.59,11.59,0,0,1,3,9c0,.39-.08.76-.14,1.13a12.82,12.82,0,0,0,9.24,5.33c7.39.62,13.92-5.45,14.61-13.56a16.12,16.12,0,0,0,0-2.78C110.38,74.74,101.32,71.48,97.44,69.53Z"/><polygon class="cls-3" points="89.92 56.08 114.81 67.61 139.09 56.08 115.57 45.92 89.92 56.08"/><polygon class="cls-5" points="89.92 55.19 114.81 66.72 139.09 55.19 115.57 45.02 89.92 55.19"/><circle class="cls-6" cx="114.51" cy="53.98" r="0.76"/><path class="cls-7" d="M114.51,54l13.61,6.42s-.56,7.42,1.14,9.7"/><path class="cls-8" d="M129.45,70.1s3.87,1.82-.57,5.58C128.88,75.68,126.49,71.35,129.45,70.1Z"/><path class="cls-4" d="M103.33,113.21a23,23,0,0,1-.33,3.84c5.22-5.48,14.58-13.8,25.51-16.71a19.42,19.42,0,0,0-9.67-9.81,16,16,0,0,1-17.53.63,19.24,19.24,0,0,0-6.13,5.32C100.05,99.79,103.33,106,103.33,113.21Z"/><path class="cls-4" d="M138,106.64c-18.56,1.08-38.45,19.07-38.45,19.07,9.91-14.08,31.8-20.75,36-21.93L134.08,102c-19.42,1.52-35.51,22.76-35.51,22.76C89.47,111.45,64,102,64,102L60.9,104.3c26.47,6,37.22,21.41,37.22,21.41-18.38-16.26-35.7-18.93-39.86-19.35,2.77,3.82,9.36,46.36,9.36,46.36,17,5.77,31.56,22.76,31.56,22.76,6.68-14.87,30-21.55,30-21.55C128.93,145.9,137.66,108.15,138,106.64Z"/><rect class="cls-9" x="97.25" y="125.21" width="2.52" height="48.49" rx="0.95"/><rect class="cls-10" x="24.01" y="208.03" width="159.1" height="6.83"/><text class="cls-11" transform="translate(14.03 242.92)">BELFODC</text></svg>